<svg width="77" height="87" viewBox="0 0 77 87" fill="none" xmlns="http://www.w3.org/2000/svg">
<path d="M66.0931 17.6235H54.3431V4.40479C54.3431 2.78182 55.6576 1.46729 57.2806 1.46729H63.1556C64.7785 1.46729 66.0931 2.78182 66.0931 4.40479V17.6235Z" fill="#FFA500"/>
<path opacity="0.3" d="M38.1868 86.6548C54.5116 86.6548 67.7454 84.682 67.7454 82.2485C67.7454 79.815 54.5116 77.8423 38.1868 77.8423C21.8621 77.8423 8.62823 79.815 8.62823 82.2485C8.62823 84.682 21.8621 86.6548 38.1868 86.6548Z" fill="black"/>
<path d="M68.2639 16.9788L43.5492 2.87876C40.4164 1.09129 36.5771 1.07661 33.431 2.83911L8.16264 16.9905C5.84202 18.2874 4.40558 20.7388 4.40558 23.3972V64.6235C4.40558 68.6788 7.69411 71.9673 11.7493 71.9673H64.6243C68.6796 71.9673 71.9681 68.6788 71.9681 64.6235V23.3575C71.9681 20.7197 70.5537 18.286 68.2639 16.9788Z" fill="#FFA500"/>
<path d="M72.6995 26.436C72.0988 26.436 71.4893 26.2877 70.9253 25.9778L38.1868 7.86662L5.4484 25.9778C3.67709 26.9574 1.44018 26.3171 0.459056 24.5413C-0.522069 22.7671 0.121244 20.5331 1.89549 19.552L36.4111 0.45825C37.5156 -0.15275 38.861 -0.15275 39.9655 0.45825L74.4811 19.552C76.2554 20.5331 76.8987 22.7671 75.9176 24.5413C75.2449 25.7531 73.992 26.436 72.6995 26.436Z" fill="#FD3C4F"/>
<path opacity="0.3" d="M38.8521 0.0822426C38.0267 -0.0705074 37.1631 0.0396483 36.4096 0.456773L1.894 19.5505C1.60465 19.7106 1.3579 19.9133 1.13171 20.1321C2.48737 22.4777 4.94606 23.8055 7.48846 23.8055C8.6899 23.8055 9.90896 23.5103 11.0355 22.8861L35.6429 9.27368C38.9359 7.4539 40.2445 3.4824 38.8521 0.0822426Z" fill="white"/>
<path d="M28.5988 10.6103L16.9149 17.0948" stroke="white" stroke-width="6" stroke-miterlimit="10" stroke-linecap="round" stroke-linejoin="round"/>
<path d="M61.6868 71.9673H41.1243V41.1235C41.1243 39.5006 42.4389 38.186 44.0618 38.186H58.7493C60.3723 38.186 61.6868 39.5006 61.6868 41.1235V71.9673Z" fill="#9C34C2"/>
<path opacity="0.15" d="M42.5975 71.9673H64.6243C68.6795 71.9673 71.9681 68.6787 71.9681 64.6235V41.1279C67.9129 41.1279 64.6243 44.4121 64.6243 48.4673V61.686C64.6243 63.309 63.3098 64.6235 61.6868 64.6235H50.2526C46.4162 64.6235 42.9911 67.4288 42.6283 71.2476C42.6048 71.4899 42.5975 71.7293 42.5975 71.9673Z" fill="black"/>
<path d="M29.3743 52.8735H17.6243C16.0014 52.8735 14.6868 51.559 14.6868 49.936V41.1235C14.6868 39.5006 16.0014 38.186 17.6243 38.186H29.3743C30.9973 38.186 32.3118 39.5006 32.3118 41.1235V49.936C32.3118 51.559 30.9973 52.8735 29.3743 52.8735Z" fill="#9C34C2"/>
</svg>
